<?xml version="1.0" encoding="UTF-8" standalone="no"?>
<!DOCTYPE svg PUBLIC "-//W3C//DTD SVG 1.1//EN" "http://www.w3.org/Graphics/SVG/1.1/DTD/svg11.dtd">
<svg width="100%" height="100%" viewBox="0 0 512 512" version="1.1" xmlns="http://www.w3.org/2000/svg" xmlns:xlink="http://www.w3.org/1999/xlink" xml:space="preserve" xmlns:serif="http://www.serif.com/" style="fill-rule:evenodd;clip-rule:evenodd;stroke-linejoin:round;stroke-miterlimit:2;">
    <g transform="matrix(1.18898,0,0,1.18898,-48.3796,-48.3797)">
        <path d="M430.929,296.371C430.929,393.008 352.627,471.31 255.989,471.31C159.352,471.31 81.05,393.008 81.05,296.371C81.05,208.901 145.223,136.402 229.076,123.534L229.076,94.517L205.526,94.517C199.975,94.517 195.434,89.976 195.434,84.425L195.434,50.783C195.434,45.232 199.975,40.69 205.526,40.69L306.453,40.69C312.004,40.69 316.545,45.232 316.545,50.783L316.545,84.425C316.545,89.976 312.004,94.517 306.453,94.517L282.903,94.517L282.903,123.534C314.443,128.412 343.207,141.701 366.756,161.045L389.885,137.916C393.838,133.963 400.23,133.963 404.183,137.916L427.985,161.718C431.938,165.671 431.938,172.063 427.985,176.016L402.754,201.247C420.584,228.498 430.929,261.215 430.929,296.371Z" style="fill:url(#_Linear1);fill-rule:nonzero;"/>
        <g transform="matrix(0.880918,0.136636,-0.102339,0.6598,85.4047,59.5023)">
            <circle cx="124.299" cy="370.233" r="64.299" style="fill-opacity:0.15;"/>
        </g>
        <g transform="matrix(-0.880918,0.136636,0.102339,0.6598,426.595,59.5023)">
            <circle cx="124.299" cy="370.233" r="64.299" style="fill-opacity:0.15;"/>
        </g>
        <g transform="matrix(1.96435,0,0,1.96435,-211.671,-270.665)">
            <path d="M179.179,253.438L230.268,284.277C227.164,298.41 214.559,309 199.5,309C182.115,309 168,294.885 168,277.5C168,267.856 172.343,259.219 179.179,253.438Z" style="fill:rgb(234,234,209);"/>
            <path d="M188.469,259.046L220.969,278.664C220.364,289.99 210.976,299 199.5,299C187.634,299 178,289.366 178,277.5C178,269.665 182.2,262.803 188.469,259.046Z"/>
        </g>
        <g transform="matrix(-1.96435,0,0,1.96435,727.205,-270.665)">
            <path d="M179.179,253.438L230.268,284.277C227.164,298.41 214.559,309 199.5,309C182.115,309 168,294.885 168,277.5C168,267.856 172.343,259.219 179.179,253.438Z" style="fill:rgb(234,234,209);"/>
            <path d="M188.469,259.046L220.969,278.664C220.364,289.99 210.976,299 199.5,299C187.634,299 178,289.366 178,277.5C178,269.665 182.2,262.803 188.469,259.046Z"/>
        </g>
    </g>
    <defs>
        <linearGradient id="_Linear1" x1="0" y1="0" x2="1" y2="0" gradientUnits="userSpaceOnUse" gradientTransform="matrix(-0.000125,430.62,-430.62,-0.000125,256,40.69)"><stop offset="0" style="stop-color:rgb(227,51,76);stop-opacity:1"/><stop offset="0.63" style="stop-color:rgb(211,52,80);stop-opacity:1"/><stop offset="0.83" style="stop-color:rgb(172,55,91);stop-opacity:1"/><stop offset="1" style="stop-color:rgb(128,58,103);stop-opacity:1"/></linearGradient>
    </defs>
</svg>
