<?xml version="1.0" encoding="UTF-8" standalone="no"?>
<!DOCTYPE svg PUBLIC "-//W3C//DTD SVG 1.1//EN" "http://www.w3.org/Graphics/SVG/1.1/DTD/svg11.dtd">
<svg width="100%" height="100%" viewBox="0 0 512 512" version="1.1" xmlns="http://www.w3.org/2000/svg" xmlns:xlink="http://www.w3.org/1999/xlink" xml:space="preserve" xmlns:serif="http://www.serif.com/" style="fill-rule:evenodd;clip-rule:evenodd;stroke-linejoin:round;stroke-miterlimit:2;">
    <path d="M430.929,296.371C430.929,393.008 352.627,471.31 255.989,471.31C159.352,471.31 81.05,393.008 81.05,296.371C81.05,208.901 145.223,136.402 229.076,123.534L229.076,94.517L205.526,94.517C199.975,94.517 195.434,89.976 195.434,84.425L195.434,50.783C195.434,45.232 199.975,40.69 205.526,40.69L306.453,40.69C312.004,40.69 316.545,45.232 316.545,50.783L316.545,84.425C316.545,89.976 312.004,94.517 306.453,94.517L282.903,94.517L282.903,123.534C314.443,128.412 343.207,141.701 366.756,161.045L389.885,137.916C393.838,133.963 400.23,133.963 404.183,137.916L427.985,161.718C431.938,165.671 431.938,172.063 427.985,176.016L402.754,201.247C420.584,228.498 430.929,261.215 430.929,296.371Z" style="fill:rgb(220,53,69);fill-rule:nonzero;"/>
    <g transform="matrix(-0.543016,-1.07539,-0.717924,0.362515,614.839,341.644)">
        <path d="M204.735,240.733C204.735,224.157 195.764,210.72 184.698,210.72L184.696,210.72C173.63,210.72 164.659,224.157 164.659,240.733L164.659,306.729C164.659,323.304 173.63,336.741 184.696,336.741L184.698,336.741C195.764,336.741 204.735,323.304 204.735,306.729L204.735,240.733Z"/>
    </g>
    <g transform="matrix(0.543016,-1.07539,0.717924,0.362515,-105.391,341.644)">
        <path d="M204.735,240.733C204.735,224.157 195.764,210.72 184.698,210.72L184.696,210.72C173.63,210.72 164.659,224.157 164.659,240.733L164.659,306.729C164.659,323.304 173.63,336.741 184.696,336.741L184.698,336.741C195.764,336.741 204.735,323.304 204.735,306.729L204.735,240.733Z"/>
    </g>
    <g transform="matrix(1.10818,0,0,1.10818,125.319,-9.1309)">
        <circle cx="156.314" cy="297.771" r="23.279"/>
    </g>
    <g transform="matrix(1.10818,0,0,1.10818,40.2324,-9.1309)">
        <circle cx="156.314" cy="297.771" r="23.279"/>
    </g>
</svg>
